<svg width="90" height="90" viewBox="0 0 90 90" fill="none" xmlns="http://www.w3.org/2000/svg">
<path d="M43.5426 41.8C47.0092 41.8 49.4759 40.6667 50.9426 38.4C52.4759 36.1333 53.2426 32.8333 53.2426 28.5C53.2426 26.3 53.1092 24.3 52.8426 22.5C52.6426 20.7 52.2092 19.1667 51.5426 17.9C50.8759 16.5667 49.9759 15.5667 48.8426 14.9C47.7759 14.1667 46.3759 13.8 44.6426 13.8C42.5092 13.8 40.7759 14.2667 39.4426 15.2C38.1759 16.0667 37.1759 17.2 36.4426 18.6C35.7092 20 35.2092 21.5667 34.9426 23.3C34.6759 25.0333 34.5426 26.7333 34.5426 28.4C34.5426 32.8 35.3092 36.1333 36.8426 38.4C38.3759 40.6667 40.6092 41.8 43.5426 41.8ZM61.0426 18.2C61.9759 19.6 62.6426 21.1 63.0426 22.7C63.5092 24.2333 63.7759 25.8 63.8426 27.4C63.8426 30.3333 63.2759 32.9333 62.1426 35.2C61.0759 37.4 59.5759 39.2667 57.6426 40.8C55.7759 42.3333 53.6092 43.5 51.1426 44.3C48.6759 45.1 46.0426 45.5 43.2426 45.5C42.4426 45.5 41.4092 45.5333 40.1426 45.6C38.8759 45.6667 37.6426 45.8 36.4426 46C35.2426 46.2 34.2092 46.5333 33.3426 47C32.5426 47.4 32.1426 48 32.1426 48.8C32.1426 49.4 32.4759 49.9 33.1426 50.3C33.8092 50.7 34.6092 51.0333 35.5426 51.3C36.5426 51.5 37.5092 51.6667 38.4426 51.8C39.4426 51.8667 40.2426 51.9 40.8426 51.9C45.6426 52.2333 49.9426 52.6667 53.7426 53.2C57.5426 53.6667 60.7426 54.4667 63.3426 55.6C66.0092 56.7333 68.0426 58.3 69.4426 60.3C70.8426 62.3667 71.5426 65.0333 71.5426 68.3C71.5426 71.1667 70.9759 73.8333 69.8426 76.3C68.7092 78.7667 67.0092 80.9 64.7426 82.7C62.4759 84.5 59.6759 85.9 56.3426 86.9C53.0759 87.9667 49.2759 88.5 44.9426 88.5C41.3426 88.5 38.0426 88.1667 35.0426 87.5C32.0426 86.9 29.4426 85.9333 27.2426 84.6C25.1092 83.2667 23.4426 81.5667 22.2426 79.5C21.1092 77.4333 20.5426 74.9667 20.5426 72.1C20.5426 70.4333 20.7759 68.9 21.2426 67.5C21.7092 66.1667 22.3426 64.9667 23.1426 63.9C23.9426 62.8333 24.8426 61.8667 25.8426 61C26.8426 60.2 27.8759 59.5333 28.9426 59C27.4092 58.4667 26.0092 57.7333 24.7426 56.8C23.4759 55.8 22.8426 54.2333 22.8426 52.1C22.8426 50.5667 23.1759 49.2667 23.8426 48.2C24.5759 47.1333 25.5092 46.2667 26.6426 45.6C27.8426 44.9333 29.1426 44.4667 30.5426 44.2C32.0092 43.8667 33.4426 43.6667 34.8426 43.6C34.9092 43.6 34.9426 43.5667 34.9426 43.5C34.9426 43.4333 34.9092 43.4 34.8426 43.4C31.4426 42.0667 28.7759 40.2333 26.8426 37.9C24.9092 35.5 23.9426 32.3 23.9426 28.3C23.9426 25.5667 24.4426 23.1 25.4426 20.9C26.4426 18.6333 27.8426 16.7333 29.6426 15.2C31.5092 13.6 33.7426 12.3667 36.3426 11.5C38.9426 10.6333 41.8092 10.2 44.9426 10.2C48.4759 10.2 51.2759 10.7 53.3426 11.7C55.4759 12.7 57.4092 14 59.1426 15.6C60.4092 14.3333 61.9092 13.2667 63.6426 12.4C65.3759 11.5333 67.3092 11.1 69.4426 11.1C70.1759 11.1 70.9759 11.1667 71.8426 11.3C72.7759 11.4333 73.6092 11.7 74.3426 12.1C75.1426 12.4333 75.7759 12.9 76.2426 13.5C76.7759 14.1 77.0426 14.9 77.0426 15.9C77.0426 17.0333 76.7426 18.0667 76.1426 19C75.5426 19.8667 74.3759 20.3 72.6426 20.3C71.3759 20.3 70.5426 20.0333 70.1426 19.5C69.7426 18.9667 69.4426 18.4 69.2426 17.8C69.0426 17.2 68.8092 16.6333 68.5426 16.1C68.2759 15.5667 67.6426 15.3 66.6426 15.3C65.5759 15.3 64.5092 15.5667 63.4426 16.1C62.3759 16.6333 61.5759 17.3333 61.0426 18.2ZM33.9426 60.1C32.8092 61.0333 31.9092 62.3667 31.2426 64.1C30.5759 65.8333 30.2426 67.5667 30.2426 69.3C30.2426 71.7667 30.7426 73.9 31.7426 75.7C32.8092 77.5667 34.1759 79.1 35.8426 80.3C37.5092 81.5667 39.4092 82.5 41.5426 83.1C43.7426 83.7 45.9759 84 48.2426 84C50.2426 84 52.1092 83.6667 53.8426 83C55.6426 82.3333 57.2092 81.4333 58.5426 80.3C59.8759 79.1667 60.9426 77.8333 61.7426 76.3C62.5426 74.7667 62.9426 73.1 62.9426 71.3C62.9426 69.0333 62.1759 67.2 60.6426 65.8C59.1759 64.4 57.1426 63.3 54.5426 62.5C51.9426 61.7 48.8759 61.1333 45.3426 60.8C41.8092 60.4667 38.0092 60.2333 33.9426 60.1Z" fill="black"/>
<circle cx="45" cy="45" r="43.5" stroke="black" stroke-width="3"/>
</svg>
