<svg width="159" height="55" viewBox="0 0 159 55" fill="none" xmlns="http://www.w3.org/2000/svg">
<path d="M9.35 10.2C7.85 10.2 6.61667 9.76666 5.65 8.9C4.71667 8 4.25 6.9 4.25 5.6C4.25 4.26667 4.71667 3.16666 5.65 2.3C6.61667 1.4 7.85 0.949997 9.35 0.949997C10.8167 0.949997 12.0167 1.4 12.95 2.3C13.9167 3.16666 14.4 4.26667 14.4 5.6C14.4 6.9 13.9167 8 12.95 8.9C12.0167 9.76666 10.8167 10.2 9.35 10.2ZM13.65 44.6C13.65 48.0333 12.7833 50.5 11.05 52C9.31667 53.5333 6.9 54.3 3.8 54.3H0.45V47.05H2.5C3.43333 47.05 4.1 46.8667 4.5 46.5C4.9 46.1333 5.1 45.5333 5.1 44.7V13.1H13.65V44.6ZM47.3473 13.1V41H38.7973V37.2C37.9306 38.4333 36.7473 39.4333 35.2473 40.2C33.7806 40.9333 32.1473 41.3 30.3473 41.3C28.2139 41.3 26.3306 40.8333 24.6973 39.9C23.0639 38.9333 21.7973 37.55 20.8973 35.75C19.9973 33.95 19.5473 31.8333 19.5473 29.4V13.1H28.0473V28.25C28.0473 30.1167 28.5306 31.5667 29.4973 32.6C30.4639 33.6333 31.7639 34.15 33.3973 34.15C35.0639 34.15 36.3806 33.6333 37.3473 32.6C38.3139 31.5667 38.7973 30.1167 38.7973 28.25V13.1H47.3473ZM62.0387 4V41H53.4887V4H62.0387ZM72.5348 10.2C71.0348 10.2 69.8014 9.76666 68.8348 8.9C67.9014 8 67.4348 6.9 67.4348 5.6C67.4348 4.26667 67.9014 3.16666 68.8348 2.3C69.8014 1.4 71.0348 0.949997 72.5348 0.949997C74.0014 0.949997 75.2014 1.4 76.1348 2.3C77.1014 3.16666 77.5848 4.26667 77.5848 5.6C77.5848 6.9 77.1014 8 76.1348 8.9C75.2014 9.76666 74.0014 10.2 72.5348 10.2ZM76.7848 13.1V41H68.2348V13.1H76.7848ZM109.281 26.6C109.281 27.4 109.231 28.2333 109.131 29.1H89.7809C89.9142 30.8333 90.4642 32.1667 91.4309 33.1C92.4309 34 93.6475 34.45 95.0809 34.45C97.2142 34.45 98.6975 33.55 99.5309 31.75H108.631C108.164 33.5833 107.314 35.2333 106.081 36.7C104.881 38.1667 103.364 39.3167 101.531 40.15C99.6975 40.9833 97.6475 41.4 95.3809 41.4C92.6475 41.4 90.2142 40.8167 88.0809 39.65C85.9475 38.4833 84.2809 36.8167 83.0809 34.65C81.8809 32.4833 81.2809 29.95 81.2809 27.05C81.2809 24.15 81.8642 21.6167 83.0309 19.45C84.2309 17.2833 85.8975 15.6167 88.0309 14.45C90.1642 13.2833 92.6142 12.7 95.3809 12.7C98.0809 12.7 100.481 13.2667 102.581 14.4C104.681 15.5333 106.314 17.15 107.481 19.25C108.681 21.35 109.281 23.8 109.281 26.6ZM100.531 24.35C100.531 22.8833 100.031 21.7167 99.0309 20.85C98.0309 19.9833 96.7809 19.55 95.2809 19.55C93.8475 19.55 92.6309 19.9667 91.6309 20.8C90.6642 21.6333 90.0642 22.8167 89.8309 24.35H100.531ZM130.791 12.8C134.058 12.8 136.658 13.8667 138.591 16C140.558 18.1 141.541 21 141.541 24.7V41H133.041V25.85C133.041 23.9833 132.558 22.5333 131.591 21.5C130.625 20.4667 129.325 19.95 127.691 19.95C126.058 19.95 124.758 20.4667 123.791 21.5C122.825 22.5333 122.341 23.9833 122.341 25.85V41H113.791V13.1H122.341V16.8C123.208 15.5667 124.375 14.6 125.841 13.9C127.308 13.1667 128.958 12.8 130.791 12.8Z" fill="white"/>
<path d="M151.483 41.4C149.983 41.4 148.749 40.9667 147.783 40.1C146.849 39.2 146.383 38.1 146.383 36.8C146.383 35.4667 146.849 34.35 147.783 33.45C148.749 32.55 149.983 32.1 151.483 32.1C152.949 32.1 154.149 32.55 155.083 33.45C156.049 34.35 156.533 35.4667 156.533 36.8C156.533 38.1 156.049 39.2 155.083 40.1C154.149 40.9667 152.949 41.4 151.483 41.4Z" fill="#FF4A57"/>
</svg>
