<svg xmlns="http://www.w3.org/2000/svg" viewBox="0 0 300 135" width="300" height="135" preserveAspectRatio="xMidYMid meet" style="width: 100%; height: 100%; transform: translate3d(0px, 0px, 0px);"><defs><clipPath id="__lottie_element_30"><rect width="300" height="135" x="0" y="0"></rect></clipPath></defs><g clip-path="url(#__lottie_element_30)"><g transform="matrix(3.1828598976135254,0,0,3.1828598976135254,-4.3686981201171875,-0.931488037109375)" opacity="1" style="display: block;"><g opacity="1" transform="matrix(1,0,0,1,45.720001220703125,3.9639999866485596)"><path fill="rgb(165,223,239)" fill-opacity="1" d=" M0.003000000026077032,2.7360000610351562 C1.5149999856948853,2.7330000400543213 2.736999988555908,1.5069999694824219 2.7339999675750732,-0.004999999888241291 C2.7339999675750732,-1.5169999599456787 1.5049999952316284,-2.739000082015991 -0.004000000189989805,-2.7360000610351562 C-1.5160000324249268,-2.7330000400543213 -2.736999988555908,-1.5069999694824219 -2.7339999675750732,0.004999999888241291 C-2.7309999465942383,1.5140000581741333 -1.50600004196167,2.739000082015991 0.006000000052154064,2.7360000610351562 C0.006000000052154064,2.7360000610351562 0.003000000026077032,2.7360000610351562 0.003000000026077032,2.7360000610351562z"></path></g><g opacity="1" transform="matrix(1,0,0,1,69.49199676513672,3.9639999866485596)"><path fill="rgb(165,223,239)" fill-opacity="1" d=" M0.007000000216066837,2.7360000610351562 C1.5190000534057617,2.7330000400543213 2.73799991607666,1.5069999694824219 2.73799991607666,-0.004999999888241291 C2.7309999465942383,-1.5169999599456787 1.5049999952316284,-2.739000082015991 -0.007000000216066837,-2.7360000610351562 C-1.5190000534057617,-2.7330000400543213 -2.73799991607666,-1.5069999694824219 -2.73799991607666,0.004999999888241291 C-2.7339999675750732,1.5140000581741333 -1.5080000162124634,2.739000082015991 0.004000000189989805,2.7360000610351562 C0.004000000189989805,2.7360000610351562 0.007000000216066837,2.7360000610351562 0.007000000216066837,2.7360000610351562z"></path></g><g opacity="1" transform="matrix(1,0,0,1,12.888999938964844,17.64299964904785)"><path fill="rgb(255,255,255)" fill-opacity="1" d=" M0.0010000000474974513,10.944000244140625 C2,10.944000244140625 3.9570000171661377,10.373000144958496 5.645999908447266,9.300000190734863 C6.561999797821045,10.538000106811523 8.303000450134277,10.791999816894531 9.531000137329102,9.87399959564209 C10.237000465393066,9.345000267028809 10.652999877929688,8.510000228881836 10.649999618530273,7.623000144958496 C10.649999618530273,7.623000144958496 10.659000396728516,7.623000144958496 10.659000396728516,7.623000144958496 C10.659000396728516,7.623000144958496 10.659000396728516,-8.138999938964844 10.659000396728516,-8.138999938964844 C10.659000396728516,-8.138999938964844 10.649999618530273,-8.138999938964844 10.649999618530273,-8.138999938964844 C10.649999618530273,-9.685999870300293 9.402000427246094,-10.944000244140625 7.861000061035156,-10.9399995803833 C6.322999954223633,-10.9399995803833 5.076000213623047,-9.682999610900879 5.076000213623047,-8.138999938964844 C5.076000213623047,-8.138999938964844 5.065999984741211,-8.138999938964844 5.065999984741211,-8.138999938964844 C5.065999984741211,-8.138999938964844 5.065999984741211,0.21799999475479126 5.065999984741211,0.21799999475479126 C5.065999984741211,3.0360000133514404 2.7960000038146973,5.321000099182129 -0.004999999888241291,5.321000099182129 C-2.806999921798706,5.321000099182129 -5.077000141143799,3.0390000343322754 -5.077000141143799,0.21799999475479126 C-5.077000141143799,0.21799999475479126 -5.077000141143799,-8.138999938964844 -5.077000141143799,-8.138999938964844 C-5.077000141143799,-8.138999938964844 -5.086999893188477,-8.138999938964844 -5.086999893188477,-8.138999938964844 C-5.086999893188477,-9.685999870300293 -6.334000110626221,-10.944000244140625 -7.872000217437744,-10.944000244140625 C-9.40999984741211,-10.944000244140625 -10.64799976348877,-9.6899995803833 -10.64799976348877,-8.138999938964844 C-10.64799976348877,-8.138999938964844 -10.659000396728516,-8.138999938964844 -10.659000396728516,-8.138999938964844 C-10.659000396728516,-8.138999938964844 -10.659000396728516,0.21799999475479126 -10.659000396728516,0.21799999475479126 C-10.652000427246094,6.139999866485596 -5.882999897003174,10.940999984741211 0.0010000000474974513,10.944000244140625z"></path></g><g opacity="1" transform="matrix(1,0,0,1,36.75699996948242,23.365999221801758)"><path fill="rgb(255,255,255)" fill-opacity="1" d=" M-0.0010000000474974513,4.0289998054504395 C1.246999979019165,4.0289998054504395 5.315999984741211,4.322000026702881 5.315999984741211,8.067999839782715 C5.315999984741211,11.211000442504883 2.446000099182129,12.319999694824219 -0.0010000000474974513,12.319999694824219 C-2.447999954223633,12.319999694824219 -4.284999847412109,11.359000205993652 -4.98799991607666,9.760000228881836 C-4.98799991607666,9.760000228881836 -4.997000217437744,9.760000228881836 -4.997000217437744,9.760000228881836 C-5.599999904632568,8.335000038146973 -7.244999885559082,7.668000221252441 -8.673999786376953,8.267999649047852 C-9.704999923706055,8.70300006866455 -10.37600040435791,9.70199966430664 -10.388999938964844,10.817999839782715 C-10.388999938964844,11.208000183105469 -10.302000045776367,11.592000007629395 -10.13700008392334,11.942999839782715 C-10.13700008392334,11.942999839782715 -10.156000137329102,11.954000473022461 -10.156000137329102,11.954000473022461 C-8.562999725341797,15.600000381469727 -4.672999858856201,17.858999252319336 -0.0010000000474974513,17.858999252319336 C6.336999893188477,17.858999252319336 10.940999984741211,13.743000030517578 10.940999984741211,8.062000274658203 C10.989999771118164,5.309000015258789 9.770999908447266,2.684000015258789 7.632999897003174,0.9430000185966492 C9.748000144958496,-1.0720000267028809 10.940999984741211,-3.8610000610351562 10.940999984741211,-6.775000095367432 C11.003000259399414,-12.803999900817871 6.150000095367432,-17.739999771118164 0.10899999737739563,-17.79800033569336 C-5.935999870300293,-17.860000610351562 -10.881999969482422,-13.020000457763672 -10.942999839782715,-6.994999885559082 C-11.003999710083008,-0.9660000205039978 -6.1519999504089355,3.9709999561309814 -0.11100000143051147,4.0289998054504395 C-0.11100000143051147,4.0289998054504395 -0.0010000000474974513,4.0289998054504395 -0.0010000000474974513,4.0289998054504395z M-0.0010000000474974513,-12.008000373840332 C2.9010000228881836,-11.972999572753906 5.224999904632568,-9.600000381469727 5.192999839782715,-6.708000183105469 C5.1570000648498535,-3.812999963760376 2.7790000438690186,-1.4950000047683716 -0.12200000137090683,-1.5269999504089355 C-3.000999927520752,-1.559000015258789 -5.315999984741211,-3.8949999809265137 -5.315999984741211,-6.76800012588501 C-5.294000148773193,-9.675999641418457 -2.9189999103546143,-12.020000457763672 -0.0010000000474974513,-12.010000228881836 C-0.0010000000474974513,-12.010000228881836 -0.0010000000474974513,-12.008000373840332 -0.0010000000474974513,-12.008000373840332z"></path></g><g opacity="1" transform="matrix(1,0,0,1,61.09700012207031,23.365999221801758)"><path fill="rgb(255,255,255)" fill-opacity="1" d=" M0.0010000000474974513,4.0289998054504395 C1.2489999532699585,4.0289998054504395 5.315999984741211,4.322000026702881 5.315999984741211,8.067999839782715 C5.315999984741211,11.211000442504883 2.447999954223633,12.319999694824219 0.0010000000474974513,12.319999694824219 C-2.446000099182129,12.319999694824219 -4.284999847412109,11.359000205993652 -4.98799991607666,9.760000228881836 C-4.98799991607666,9.760000228881836 -4.997000217437744,9.760000228881836 -4.997000217437744,9.760000228881836 C-5.599999904632568,8.335000038146973 -7.24399995803833,7.668000221252441 -8.67300033569336,8.267999649047852 C-9.704000473022461,8.70300006866455 -10.376999855041504,9.70199966430664 -10.38700008392334,10.817999839782715 C-10.38700008392334,11.208000183105469 -10.300000190734863,11.592000007629395 -10.135000228881836,11.942999839782715 C-10.135000228881836,11.942999839782715 -10.156000137329102,11.954000473022461 -10.156000137329102,11.954000473022461 C-8.562999725341797,15.600000381469727 -4.671000003814697,17.858999252319336 0.0010000000474974513,17.858999252319336 C6.339000225067139,17.858999252319336 10.942999839782715,13.743000030517578 10.942999839782715,8.062000274658203 C10.991999626159668,5.309000015258789 9.77299976348877,2.684000015258789 7.635000228881836,0.9430000185966492 C9.75,-1.0720000267028809 10.942999839782715,-3.8610000610351562 10.942999839782715,-6.775000095367432 C11.003999710083008,-12.803999900817871 6.1519999504089355,-17.739999771118164 0.11100000143051147,-17.79800033569336 C-5.934000015258789,-17.860000610351562 -10.880000114440918,-13.020000457763672 -10.940999984741211,-6.994999885559082 C-11.003000259399414,-0.9660000205039978 -6.150000095367432,3.9709999561309814 -0.10899999737739563,4.0289998054504395 C-0.10899999737739563,4.0289998054504395 0.0010000000474974513,4.0289998054504395 0.0010000000474974513,4.0289998054504395z M0.0010000000474974513,-12.008000373840332 C2.9030001163482666,-11.972999572753906 5.2270002365112305,-9.600000381469727 5.195000171661377,-6.708000183105469 C5.163000106811523,-3.815999984741211 2.7790000438690186,-1.4950000047683716 -0.12200000137090683,-1.5269999504089355 C-3.000999927520752,-1.559000015258789 -5.315999984741211,-3.8949999809265137 -5.315999984741211,-6.76800012588501 C-5.294000148773193,-9.675999641418457 -2.9170000553131104,-12.020000457763672 0.0010000000474974513,-12.010000228881836 C0.0010000000474974513,-12.010000228881836 0.0010000000474974513,-12.008000373840332 0.0010000000474974513,-12.008000373840332z"></path></g><g opacity="1" transform="matrix(1,0,0,1,83.73100280761719,21.42799949645996)"><path fill="rgb(255,255,255)" fill-opacity="1" d=" M-10.173999786376953,-10.979000091552734 C-10.173999786376953,-10.979000091552734 -3.486999988555908,6.317999839782715 -3.486999988555908,6.317999839782715 C-3.486999988555908,6.317999839782715 -5.63100004196167,11.220999717712402 -5.63100004196167,11.220999717712402 C-5.63100004196167,11.220999717712402 -5.622000217437744,11.220999717712402 -5.622000217437744,11.220999717712402 C-5.7729997634887695,11.565999984741211 -5.849999904632568,11.937000274658203 -5.8460001945495605,12.314000129699707 C-5.836999893188477,13.854999542236328 -4.577000141143799,15.09000015258789 -3.0360000133514404,15.079999923706055 C-1.9170000553131104,15.079999923706055 -0.9020000100135803,14.425999641418457 -0.44999998807907104,13.404000282287598 C-0.44999998807907104,13.404000282287598 -0.4410000145435333,13.404000282287598 -0.4410000145435333,13.404000282287598 C-0.4410000145435333,13.404000282287598 10.16100025177002,-10.869000434875488 10.16100025177002,-10.869000434875488 C10.16100025177002,-10.869000434875488 10.149999618530273,-10.869000434875488 10.149999618530273,-10.869000434875488 C10.302000045776367,-11.21399974822998 10.378999710083008,-11.585000038146973 10.37600040435791,-11.961999893188477 C10.36299991607666,-13.503000259399414 9.105999946594238,-14.73799991607666 7.561999797821045,-14.727999687194824 C6.443999767303467,-14.727999687194824 5.429999828338623,-14.074000358581543 4.974999904632568,-13.052000045776367 C4.974999904632568,-13.052000045776367 4.9670000076293945,-13.052000045776367 4.9670000076293945,-13.052000045776367 C4.9670000076293945,-13.052000045776367 -0.3009999990463257,-1.0010000467300415 -0.3009999990463257,-1.0010000467300415 C-0.3009999990463257,-1.0010000467300415 -4.921999931335449,-12.939000129699707 -4.921999931335449,-12.939000129699707 C-4.921999931335449,-12.939000129699707 -4.940999984741211,-12.930000305175781 -4.940999984741211,-12.930000305175781 C-5.50600004196167,-14.37399959564209 -7.13700008392334,-15.09000015258789 -8.588000297546387,-14.524999618530273 C-9.654999732971191,-14.109000205993652 -10.36400032043457,-13.090999603271484 -10.380000114440918,-11.949000358581543 C-10.37399959564209,-11.61400032043457 -10.312999725341797,-11.281999588012695 -10.192999839782715,-10.968999862670898 C-10.192999839782715,-10.968999862670898 -10.184000015258789,-10.979000091552734 -10.184000015258789,-10.979000091552734 C-10.184000015258789,-10.979000091552734 -10.173999786376953,-10.979000091552734 -10.173999786376953,-10.979000091552734z"></path></g></g></g></svg>